<svg width="482" height="50" viewBox="0 0 482 50" fill="none" xmlns="http://www.w3.org/2000/svg">
<g filter="url(#filter0_d)">
<path d="M32.736 10.432C30.4747 7.70133 27.6373 6.336 24.224 6.336C20.6827 6.336 17.7173 7.808 15.328 10.752C12.9387 13.6533 11.744 16.9813 11.744 20.736C11.744 24.3627 12.9173 27.6267 15.264 30.528C17.6533 33.3867 20.6187 34.816 24.16 34.816C27.5307 34.816 30.3893 33.4507 32.736 30.72V38.72C29.5787 40.256 26.656 41.024 23.968 41.024C18.592 41.024 14.0693 39.04 10.4 35.072C6.73067 31.104 4.896 26.368 4.896 20.864C4.896 15.1467 6.73067 10.2613 10.4 6.208C14.0693 2.15467 18.6347 0.127998 24.096 0.127998C26.9547 0.127998 29.8347 0.874666 32.736 2.368V10.432ZM35.896 20.672C35.896 14.9973 37.7093 10.1547 41.336 6.144C45.0053 2.13333 49.6133 0.127998 55.16 0.127998C60.7067 0.127998 65.2933 2.13333 68.92 6.144C72.5467 10.1547 74.36 14.976 74.36 20.608C74.36 26.24 72.5467 31.0613 68.92 35.072C65.336 39.04 60.7493 41.024 55.16 41.024C49.5707 41.024 44.9627 39.04 41.336 35.072C37.7093 31.104 35.896 26.304 35.896 20.672ZM42.744 20.224C42.744 24.0213 43.9387 27.3707 46.328 30.272C48.7173 33.1307 51.6613 34.56 55.16 34.56C58.9147 34.56 61.9227 33.1947 64.184 30.464C66.4453 27.6907 67.576 24.2773 67.576 20.224C67.576 16.384 66.4453 13.1627 64.184 10.56C61.9227 7.91467 58.8933 6.592 55.096 6.592C51.3413 6.592 48.3333 7.91467 46.072 10.56C43.8533 13.2053 42.744 16.4267 42.744 20.224ZM78.0645 1.152H88.9445C94.4912 1.152 98.9925 2.98666 102.449 6.656C105.947 10.3253 107.697 14.9547 107.697 20.544C107.697 26.1333 105.926 30.784 102.385 34.496C98.8858 38.1653 94.3845 40 88.8805 40H78.0645V1.152ZM84.6565 34.048H86.8965C96.1978 34.048 100.849 29.568 100.849 20.608C100.849 11.6053 96.1978 7.104 86.8965 7.104H84.6565V34.048ZM118.419 40H111.827V1.152H118.419V40ZM124.377 0.127998H129.369L151.321 29.376L151.449 1.152H157.977V40.768H153.049L131.033 11.584L130.969 40H124.377V0.127998ZM197.87 19.328V20.288C197.87 26.4747 196.291 31.488 193.134 35.328C189.977 39.1253 185.646 41.024 180.142 41.024C174.809 41.024 170.393 39.0613 166.894 35.136C163.395 31.2107 161.646 26.4107 161.646 20.736C161.646 14.848 163.417 9.94133 166.958 6.016C170.542 2.09067 175.107 0.127998 180.654 0.127998C187.822 0.127998 192.942 3.22133 196.014 9.408L190.126 12.544C188.163 8.064 184.942 5.824 180.462 5.824C177.006 5.824 174.147 7.31733 171.886 10.304C169.625 13.248 168.494 16.7467 168.494 20.8C168.494 24.8533 169.603 28.288 171.822 31.104C174.041 33.92 176.921 35.328 180.462 35.328C183.491 35.328 185.902 34.2613 187.694 32.128C189.486 29.9947 190.382 27.456 190.382 24.512H181.102V19.328H197.87Z" fill="black"/>
<path d="M229.532 40H222.94V1.152H233.244C242.246 1.152 246.748 5.16266 246.748 13.184C246.748 21.376 242.609 25.472 234.332 25.472H229.532V40ZM229.532 20.224H232.796C237.617 20.224 240.028 17.8773 240.028 13.184C240.028 8.66133 237.553 6.4 232.604 6.4H229.532V20.224ZM248.271 20.672C248.271 14.9973 250.084 10.1547 253.711 6.144C257.38 2.13333 261.988 0.127998 267.535 0.127998C273.082 0.127998 277.668 2.13333 281.295 6.144C284.922 10.1547 286.735 14.976 286.735 20.608C286.735 26.24 284.922 31.0613 281.295 35.072C277.711 39.04 273.124 41.024 267.535 41.024C261.946 41.024 257.338 39.04 253.711 35.072C250.084 31.104 248.271 26.304 248.271 20.672ZM255.119 20.224C255.119 24.0213 256.314 27.3707 258.703 30.272C261.092 33.1307 264.036 34.56 267.535 34.56C271.29 34.56 274.298 33.1947 276.559 30.464C278.82 27.6907 279.951 24.2773 279.951 20.224C279.951 16.384 278.82 13.1627 276.559 10.56C274.298 7.91467 271.268 6.592 267.471 6.592C263.716 6.592 260.708 7.91467 258.447 10.56C256.228 13.2053 255.119 16.4267 255.119 20.224ZM316.232 40H308.104L297.095 22.72L297.032 40H290.44V1.152H300.744C309.405 1.152 313.736 5.056 313.736 12.864C313.736 15.808 312.968 18.2613 311.432 20.224C309.938 22.1867 307.89 23.3173 305.288 23.616L316.232 40ZM297.032 20.032H299.016C304.434 20.032 307.144 17.7067 307.144 13.056C307.144 8.576 304.456 6.336 299.08 6.336H297.032V20.032ZM331.03 40H325.078V6.72H316.438V1.152H339.67V6.72H331.03V40ZM349.032 6.72V16.832H361V22.4H349.032V40H342.44V1.152H361.768V6.72H349.032ZM364.459 20.672C364.459 14.9973 366.272 10.1547 369.899 6.144C373.568 2.13333 378.176 0.127998 383.723 0.127998C389.269 0.127998 393.856 2.13333 397.483 6.144C401.109 10.1547 402.923 14.976 402.923 20.608C402.923 26.24 401.109 31.0613 397.483 35.072C393.899 39.04 389.312 41.024 383.723 41.024C378.133 41.024 373.525 39.04 369.899 35.072C366.272 31.104 364.459 26.304 364.459 20.672ZM371.307 20.224C371.307 24.0213 372.501 27.3707 374.891 30.272C377.28 33.1307 380.224 34.56 383.723 34.56C387.477 34.56 390.485 33.1947 392.747 30.464C395.008 27.6907 396.139 24.2773 396.139 20.224C396.139 16.384 395.008 13.1627 392.747 10.56C390.485 7.91467 387.456 6.592 383.659 6.592C379.904 6.592 376.896 7.91467 374.635 10.56C372.416 13.2053 371.307 16.4267 371.307 20.224ZM413.219 34.432H424.931V40H406.627V1.152H413.219V34.432ZM434.481 40H427.889V1.152H434.481V40ZM438.584 20.672C438.584 14.9973 440.397 10.1547 444.024 6.144C447.693 2.13333 452.301 0.127998 457.848 0.127998C463.394 0.127998 467.981 2.13333 471.608 6.144C475.234 10.1547 477.048 14.976 477.048 20.608C477.048 26.24 475.234 31.0613 471.608 35.072C468.024 39.04 463.437 41.024 457.848 41.024C452.258 41.024 447.65 39.04 444.024 35.072C440.397 31.104 438.584 26.304 438.584 20.672ZM445.432 20.224C445.432 24.0213 446.626 27.3707 449.016 30.272C451.405 33.1307 454.349 34.56 457.848 34.56C461.602 34.56 464.61 33.1947 466.872 30.464C469.133 27.6907 470.264 24.2773 470.264 20.224C470.264 16.384 469.133 13.1627 466.872 10.56C464.61 7.91467 461.581 6.592 457.784 6.592C454.029 6.592 451.021 7.91467 448.76 10.56C446.541 13.2053 445.432 16.4267 445.432 20.224Z" fill="#FE8E27"/>
</g>
<defs>
<filter id="filter0_d" x="0.895996" y="0.127998" width="480.151" height="48.896" filterUnits="userSpaceOnUse" color-interpolation-filters="sRGB">
<feFlood flood-opacity="0" result="BackgroundImageFix"/>
<feColorMatrix in="SourceAlpha" type="matrix" values="0 0 0 0 0 0 0 0 0 0 0 0 0 0 0 0 0 0 127 0"/>
<feOffset dy="4"/>
<feGaussianBlur stdDeviation="2"/>
<feColorMatrix type="matrix" values="0 0 0 0 0 0 0 0 0 0 0 0 0 0 0 0 0 0 0.25 0"/>
<feBlend mode="normal" in2="BackgroundImageFix" result="effect1_dropShadow"/>
<feBlend mode="normal" in="SourceGraphic" in2="effect1_dropShadow" result="shape"/>
</filter>
</defs>
</svg>
